<svg width="12" height="15" viewBox="0 0 12 15" fill="none" xmlns="http://www.w3.org/2000/svg">
<path d="M4 5.50012H5V11.5001H4V5.50012Z" fill="#888888"/>
<path d="M7 5.50012H8V11.5001H7V5.50012Z" fill="#888888"/>
<path d="M0 2.50012V3.50012H1V13.5001C1 13.7653 1.10536 14.0197 1.29289 14.2072C1.48043 14.3948 1.73478 14.5001 2 14.5001H10C10.2652 14.5001 10.5196 14.3948 10.7071 14.2072C10.8946 14.0197 11 13.7653 11 13.5001V3.50012H12V2.50012H0ZM2 13.5001V3.50012H10V13.5001H2Z" fill="#888888"/>
<path d="M4 0.500122H8V1.50012H4V0.500122Z" fill="#888888"/>
</svg>
