<svg width="17" height="15" viewBox="0 0 17 15" fill="none" xmlns="http://www.w3.org/2000/svg">
<path d="M8.85721 14.5573C8.74475 14.5569 8.63556 14.5208 8.54672 14.4546C5.71662 12.3421 3.76711 10.523 2.40296 8.72834C0.662144 6.43491 0.265116 4.31752 1.22206 2.43485C1.90413 1.09009 3.86382 -0.0101684 6.15437 0.630428C7.24647 0.933483 8.19931 1.58339 8.85721 2.47398C9.51512 1.58339 10.468 0.933483 11.5601 0.630428C13.8455 -0.000388354 15.8103 1.09009 16.4924 2.43485C17.4493 4.31752 17.0523 6.43491 15.3115 8.72834C13.9473 10.523 11.9978 12.3421 9.16771 14.4546C9.07886 14.5208 8.96968 14.5569 8.85721 14.5573Z" fill="#888888"/>
</svg>
