<svg width="20" height="21" viewBox="0 0 20 21" fill="none" xmlns="http://www.w3.org/2000/svg">
<path d="M3.85449 5.74429H16.9759C17.2417 5.7443 17.5047 5.80644 17.7477 5.9267C17.9907 6.04696 18.2084 6.22266 18.3868 6.4425C18.5652 6.66233 18.7003 6.92141 18.7835 7.20304C18.8666 7.48467 18.8958 7.78259 18.8694 8.07761L18.2985 14.4441C18.2515 14.9677 18.0318 15.4532 17.6819 15.8064C17.332 16.1595 16.8769 16.3551 16.405 16.3551H7.318C6.8779 16.3553 6.45134 16.1854 6.11096 15.8743C5.77057 15.5632 5.53739 15.1301 5.45113 14.6489L3.85449 5.74429Z" stroke="#444444" stroke-width="1.5" stroke-linejoin="round"/>
<path d="M3.85454 5.74432L3.08382 2.30324C3.03227 2.07378 2.91345 1.87011 2.74623 1.72458C2.579 1.57905 2.37297 1.50001 2.16085 1.5H1" stroke="#444444" stroke-width="1.5" stroke-linecap="round" stroke-linejoin="round"/>
<path d="M6.70898 19.5H8.61201" stroke="#444444" stroke-width="1.5" stroke-linecap="round" stroke-linejoin="round"/>
<path d="M14.3213 19.5H16.2243" stroke="#444444" stroke-width="1.5" stroke-linecap="round" stroke-linejoin="round"/>
</svg>
