<svg width="83" height="25" viewBox="0 0 83 25" fill="none" xmlns="http://www.w3.org/2000/svg">
<path d="M16.6 6.775C14.675 6.775 13.05 7.725 12.425 9.225C11.625 7.7 10.125 6.775 8.3 6.775C6.675 6.775 5.35 7.575 4.7 8.825V7.075H1.65V20H4.7V12.075C4.7 10.5 5.875 9.375 7.525 9.375C9.025 9.375 10.05 10.575 10.05 12.275V20H13.025V12.075C13.025 10.5 14.175 9.375 15.85 9.375C17.325 9.375 18.35 10.575 18.35 12.275V20H21.325V11.775C21.325 8.85 19.3 6.775 16.6 6.775ZM30.2492 6.775C28.6242 6.775 26.9242 7.225 25.0992 8.125L26.1492 10.25C27.2492 9.7 28.4242 9.275 29.6492 9.275C31.9992 9.275 32.8242 10.725 32.8242 12.225V12.575C31.6492 12.125 30.3742 11.875 29.1992 11.875C26.2992 11.875 23.9242 13.625 23.9242 16.175C23.9242 18.675 25.9992 20.3 28.7492 20.3C30.2492 20.3 31.8742 19.65 32.8242 18.45V20H35.7992V12.225C35.7992 8.95 33.6742 6.775 30.2492 6.775ZM29.4242 18.075C27.9742 18.075 26.8992 17.3 26.8992 16.075C26.8992 14.85 28.1242 14 29.6492 14C30.7992 14 31.8742 14.175 32.8242 14.5V15.95C32.4742 17.325 30.8992 18.075 29.4242 18.075ZM51.3018 7.075H47.7018L42.1018 13.2V2.525H39.0518V20H42.1018V16.775L43.9268 14.85L47.5768 20H51.1268L45.9768 12.85L51.3018 7.075ZM59.1648 17.6C57.3148 17.6 55.9648 16.35 55.5898 14.575H65.3398C65.3398 9.8 63.0148 6.775 59.0148 6.775C55.3398 6.775 52.4398 9.625 52.4398 13.5C52.4398 17.475 55.4898 20.3 59.1898 20.3C61.0648 20.3 63.3148 19.5 64.4398 18.3L62.5148 16.3C61.7898 17.05 60.3648 17.6 59.1648 17.6ZM59.1398 9.475C60.9648 9.475 62.0648 10.625 62.4148 12.25H55.6148C56.0648 10.55 57.4398 9.475 59.1398 9.475Z" fill="#108CFF"/>
<path d="M68.1336 20H71.2336V2.825H68.1336V20ZM81.1719 17.225C80.8969 17.5 80.4219 17.7 79.8969 17.7C79.1719 17.7 78.6219 17.075 78.6219 16.2V9.6H81.5469V7.075H78.6219V3.525H75.6469V7.075H73.7719V9.6H75.6469V16.575C75.6469 18.75 77.1469 20.3 79.2969 20.3C80.2719 20.3 81.3219 19.9 82.0469 19.275L81.1719 17.225Z" fill="#222222"/>
</svg>
