<svg width="250" height="250" viewBox="0 0 250 250" fill="none" xmlns="http://www.w3.org/2000/svg">
<rect width="250" height="250" fill="#108CFF"/>
<path d="M69.368 106.847C64.979 106.847 61.274 109.013 59.849 112.433C58.025 108.956 54.605 106.847 50.444 106.847C46.739 106.847 43.718 108.671 42.236 111.521V107.531H35.282V137H42.236V118.931C42.236 115.34 44.915 112.775 48.677 112.775C52.097 112.775 54.434 115.511 54.434 119.387V137H61.217V118.931C61.217 115.34 63.839 112.775 67.658 112.775C71.021 112.775 73.358 115.511 73.358 119.387V137H80.141V118.247C80.141 111.578 75.524 106.847 69.368 106.847ZM100.488 106.847C96.7832 106.847 92.9072 107.873 88.7462 109.925L91.1402 114.77C93.6482 113.516 96.3272 112.547 99.1202 112.547C104.478 112.547 106.359 115.853 106.359 119.273V120.071C103.68 119.045 100.773 118.475 98.0942 118.475C91.4822 118.475 86.0672 122.465 86.0672 128.279C86.0672 133.979 90.7982 137.684 97.0682 137.684C100.488 137.684 104.193 136.202 106.359 133.466V137H113.142V119.273C113.142 111.806 108.297 106.847 100.488 106.847ZM98.6072 132.611C95.3012 132.611 92.8502 130.844 92.8502 128.051C92.8502 125.258 95.6432 123.32 99.1202 123.32C101.742 123.32 104.193 123.719 106.359 124.46V127.766C105.561 130.901 101.97 132.611 98.6072 132.611ZM148.488 107.531H140.28L127.512 121.496V97.157H120.558V137H127.512V129.647L131.673 125.258L139.995 137H148.089L136.347 120.698L148.488 107.531ZM166.416 131.528C162.198 131.528 159.12 128.678 158.265 124.631H180.495C180.495 113.744 175.194 106.847 166.074 106.847C157.695 106.847 151.083 113.345 151.083 122.18C151.083 131.243 158.037 137.684 166.473 137.684C170.748 137.684 175.878 135.86 178.443 133.124L174.054 128.564C172.401 130.274 169.152 131.528 166.416 131.528ZM166.359 113.003C170.52 113.003 173.028 115.625 173.826 119.33H158.322C159.348 115.454 162.483 113.003 166.359 113.003Z" fill="white"/>
<path d="M186.865 137H193.933V97.841H186.865V137ZM216.592 130.673C215.965 131.3 214.882 131.756 213.685 131.756C212.032 131.756 210.778 130.331 210.778 128.336V113.288H217.447V107.531H210.778V99.437H203.995V107.531H199.72V113.288H203.995V129.191C203.995 134.15 207.415 137.684 212.317 137.684C214.54 137.684 216.934 136.772 218.587 135.347L216.592 130.673Z" fill="#222222"/>
</svg>
